<?xml version="1.0" standalone="no"?>
<!DOCTYPE svg PUBLIC "-//W3C//DTD SVG 20010904//EN"
 "http://www.w3.org/TR/2001/REC-SVG-20010904/DTD/svg10.dtd">
<svg version="1.0" xmlns="http://www.w3.org/2000/svg"
 width="640.000000pt" height="286.000000pt" viewBox="0 0 640.000000 286.000000"
 preserveAspectRatio="xMidYMid meet">

<g transform="translate(0.000000,286.000000) scale(0.100000,-0.100000)"
fill="#000000" stroke="none">
<path d="M3225 2786 c-225 -44 -409 -183 -505 -381 -58 -118 -73 -196 -67
-340 4 -102 9 -132 36 -204 38 -103 78 -168 154 -248 75 -79 161 -135 268
-175 72 -27 101 -32 204 -35 144 -6 223 10 340 67 181 88 320 260 372 460 22
86 21 253 -1 340 -64 242 -263 442 -502 504 -88 23 -217 28 -299 12z m285
-102 c193 -55 349 -204 417 -401 34 -98 38 -252 9 -347 -43 -144 -130 -264
-249 -344 -100 -67 -179 -93 -299 -99 -125 -7 -200 7 -308 59 -68 32 -100 56
-160 117 -43 43 -89 103 -108 138 -66 126 -90 300 -57 428 51 199 209 375 392
436 125 41 246 45 363 13z"/>
<path d="M3047 2543 c5 -11 3 -14 -6 -8 -10 6 -11 3 -2 -14 15 -27 -5 -30 -25
-3 -7 9 -14 12 -14 5 0 -6 5 -15 10 -18 20 -12 41 -80 41 -130 0 -27 -7 -81
-16 -118 -24 -103 -2 -167 69 -204 24 -12 50 -14 127 -9 l96 7 1 -80 c1 -75 0
-81 -25 -100 -30 -24 -64 -25 -148 -5 l-60 14 65 -4 c44 -3 55 -2 35 4 -16 4
-61 8 -100 9 -58 1 -81 -4 -130 -27 -33 -16 -66 -36 -74 -45 -9 -12 2 -9 35 9
27 14 40 19 30 12 -10 -7 -29 -22 -40 -33 -12 -11 -15 -14 -6 -7 23 17 34 3
14 -19 -13 -15 -9 -14 26 3 59 30 126 33 223 13 68 -14 90 -15 126 -5 88 23
125 101 102 210 -18 82 -21 78 73 79 80 1 86 -1 105 -26 24 -29 25 -63 7 -148
l-14 -60 -4 40 c-3 28 -5 19 -6 -31 -2 -61 2 -79 28 -131 17 -34 37 -67 46
-73 8 -7 3 7 -11 31 -35 61 -31 74 5 17 17 -27 32 -48 35 -48 3 0 0 9 -7 20
-17 26 -2 38 17 14 9 -10 6 1 -6 25 -30 60 -35 126 -14 211 38 155 -15 236
-150 231 -33 -1 -78 -3 -99 -4 l-39 -2 -3 74 c-3 66 -1 75 21 97 28 28 64 30
164 12 63 -12 65 -13 31 -20 -23 -5 -12 -6 33 -4 68 4 160 38 187 71 7 8 -9 3
-34 -11 -26 -15 -49 -24 -52 -21 -3 3 12 15 35 27 40 20 56 35 26 24 -18 -7
-20 7 -4 23 7 7 -7 3 -30 -9 -59 -29 -116 -33 -205 -13 -123 27 -198 8 -233
-59 -13 -24 -14 -49 -9 -126 l6 -96 -68 -2 c-129 -2 -152 27 -125 158 9 44 18
78 21 76 2 -3 -1 -35 -8 -71 -7 -36 -10 -68 -7 -71 3 -3 11 28 17 68 16 94 3
162 -45 235 -35 53 -50 67 -38 36z m28 -45 l16 -33 -20 25 c-20 24 -26 40 -16
40 2 0 12 -15 20 -32z"/>
<path d="M3470 2320 c14 -4 36 -8 50 -8 22 0 22 1 -5 8 -16 4 -39 8 -50 8 -16
0 -15 -2 5 -8z"/>
<path d="M3438 2249 c-24 -14 -23 -46 3 -59 37 -20 67 28 37 58 -14 14 -18 14
-40 1z"/>
<path d="M3190 2225 c-6 -8 -9 -23 -5 -35 10 -31 59 -24 63 9 6 37 -34 55 -58
26z"/>
<path d="M3207 2004 c-25 -25 8 -70 43 -59 32 10 24 59 -10 63 -14 2 -29 0
-33 -4z"/>
<path d="M3451 1996 c-16 -19 2 -56 28 -56 28 0 47 28 34 48 -13 22 -47 27
-62 8z"/>
<path d="M3572 1950 c0 -14 2 -19 5 -12 2 6 2 18 0 25 -3 6 -5 1 -5 -13z"/>
<path d="M1235 1491 c-50 -15 -75 -49 -75 -98 0 -31 41 -126 59 -137 22 -14
10 -22 -24 -18 -65 8 -97 -54 -60 -118 22 -38 19 -43 -31 -64 -52 -21 -104
-62 -104 -81 0 -7 15 -24 34 -39 l34 -25 6 25 c13 50 121 90 157 58 26 -23 24
-28 -15 -46 -138 -66 -192 -219 -121 -346 37 -68 117 -141 196 -181 53 -26 74
-31 136 -31 91 0 122 13 232 94 132 99 156 110 224 111 l58 0 -28 23 c-78 63
-165 47 -298 -54 -106 -81 -167 -112 -236 -120 -143 -17 -238 68 -239 213 0
76 6 93 34 93 26 0 51 18 59 41 8 25 -21 61 -46 57 -26 -4 -38 -48 -13 -48 10
0 13 6 10 15 -4 9 0 15 9 15 22 0 29 -27 11 -45 -21 -20 -37 -19 -60 6 -17 19
-17 23 -3 47 12 22 22 27 59 29 25 1 74 13 109 27 36 14 66 26 68 26 2 0 3
-24 3 -54 0 -50 3 -56 35 -80 l35 -27 0 155 c0 149 8 202 33 218 35 22 37 12
37 -197 l0 -205 33 -30 c17 -16 35 -30 40 -30 4 0 7 22 7 49 0 41 4 51 25 65
31 21 35 70 6 86 -25 13 -27 13 -45 -5 -8 -9 -13 -22 -10 -30 8 -21 25 -19 22
3 -4 23 26 22 30 -1 4 -21 -15 -47 -34 -47 -19 0 -54 36 -54 56 0 9 14 29 30
44 29 27 30 31 30 119 0 83 2 94 24 116 l23 23 -36 36 -37 37 -140 -3 -139 -3
43 -44 c36 -37 42 -49 42 -86 0 -36 -5 -48 -34 -73 -47 -41 -74 -49 -91 -25
-20 25 -19 31 13 47 39 20 60 47 63 82 3 26 -6 41 -49 88 -44 49 -52 63 -52
97 0 77 41 119 117 119 31 0 47 -11 142 -104 74 -72 116 -105 139 -111 38 -8
62 7 62 39 0 11 5 28 10 36 7 11 1 23 -22 47 -18 18 -35 33 -40 33 -4 0 -11
-15 -16 -32 -17 -66 -71 -50 -176 51 -102 98 -159 128 -211 112z m15 -331 c0
-21 -33 -60 -51 -60 -13 0 -2 39 19 63 20 23 32 22 32 -3z"/>
<path d="M2355 1410 c-86 -24 -107 -24 -147 -4 -39 20 -56 5 -26 -23 37 -35
138 -83 172 -83 18 0 59 9 91 20 104 36 144 26 273 -68 34 -25 62 -49 62 -54
0 -4 -210 -8 -467 -8 l-468 0 45 -30 c42 -28 51 -30 143 -30 l97 0 0 -51 0
-51 -34 21 c-67 42 -126 17 -126 -53 0 -38 62 -99 148 -144 97 -52 96 -53 102
128 l5 155 35 0 35 0 3 -170 3 -169 -31 -24 c-23 -18 -30 -32 -30 -57 0 -38
20 -55 65 -55 37 0 55 42 30 70 -22 24 -38 25 -55 5 -10 -12 -10 -19 -1 -28 9
-9 14 -9 21 3 11 18 25 6 16 -15 -3 -10 -15 -15 -28 -13 -18 2 -23 10 -23 32
0 70 87 65 93 -6 3 -31 -2 -40 -27 -59 -29 -21 -31 -27 -31 -83 1 -60 2 -62
43 -93 l42 -32 5 347 5 347 38 3 37 3 0 -98 c0 -139 10 -166 73 -208 60 -40
106 -52 136 -36 19 11 21 21 23 174 l3 162 33 3 32 3 0 -185 c0 -174 -1 -186
-20 -199 -20 -14 -19 -15 20 -41 62 -41 90 -30 90 36 0 32 5 40 30 53 34 17
47 53 31 83 -25 46 -95 33 -89 -16 2 -17 10 -28 22 -30 22 -5 41 12 31 28 -6
9 -9 9 -15 0 -10 -17 -31 -3 -23 15 11 31 63 10 63 -25 0 -20 -31 -50 -52 -50
-20 0 -58 42 -58 64 0 10 13 31 30 47 28 28 29 35 32 122 l3 92 82 3 82 3 14
-34 c8 -18 36 -52 63 -76 54 -47 53 -61 -3 -94 -30 -17 -30 -17 -68 13 -44 35
-82 47 -97 32 -16 -16 4 -43 84 -117 159 -146 251 -275 278 -393 35 -149 -57
-304 -205 -347 -95 -28 -135 0 -135 94 0 77 33 131 102 165 56 28 90 32 135
16 27 -10 27 -9 -9 24 -61 58 -142 69 -224 30 -20 -10 -53 -18 -73 -18 -33 -1
-36 -4 -39 -32 -2 -23 2 -33 14 -38 20 -8 53 19 40 31 -5 5 -11 2 -13 -4 -7
-20 -33 -15 -33 6 0 24 36 37 55 21 32 -27 11 -80 -31 -80 -42 0 -45 -54 -9
-127 98 -195 396 -186 487 14 20 44 26 142 12 198 -21 88 -102 208 -237 352
-48 51 -87 95 -87 97 0 3 14 0 31 -6 74 -26 160 18 174 88 9 48 -24 116 -69
146 -20 13 -36 26 -36 31 0 4 43 7 95 7 l95 0 0 -184 c0 -174 -1 -186 -20
-199 -20 -14 -19 -15 20 -41 69 -45 90 -31 90 62 0 59 2 65 35 96 40 38 43 58
15 86 -37 37 -85 17 -78 -32 3 -26 38 -33 46 -9 3 8 0 11 -7 7 -16 -10 -31 2
-24 19 7 19 37 19 53 0 29 -35 -17 -84 -59 -62 -13 7 -29 19 -34 28 -15 24 0
68 28 81 22 10 24 18 27 77 l3 66 48 3 47 3 0 -181 c0 -166 -2 -182 -19 -197
-19 -16 -18 -17 20 -45 82 -59 88 -46 91 208 l3 209 104 3 c57 1 109 -2 114
-7 17 -17 -13 -81 -47 -102 -34 -21 -86 -25 -117 -9 -33 18 -21 4 48 -56 49
-43 63 -51 49 -30 -15 24 -16 28 -3 23 110 -42 179 15 163 134 l-7 49 62 0 61
0 -4 -99 c-3 -95 -5 -101 -33 -131 -39 -41 -93 -57 -143 -42 l-37 11 25 -19
c39 -30 116 -53 156 -46 27 6 34 4 34 -9 0 -26 -19 -55 -37 -55 -9 0 6 -16 33
-35 56 -40 54 -39 77 -22 11 8 19 34 23 77 5 50 12 70 30 87 29 27 31 56 4 83
-25 25 -32 25 -61 1 -20 -16 -22 -23 -13 -38 13 -22 49 -24 49 -3 0 9 -7 14
-19 12 -11 -2 -17 1 -14 10 7 19 39 16 52 -5 15 -24 -4 -51 -40 -55 -58 -7
-77 76 -24 106 28 16 29 21 32 92 l3 75 69 3 69 3 -36 24 -36 25 -702 0 -701
0 -93 88 c-151 142 -225 170 -360 132z m263 -404 c3 -134 -3 -156 -39 -156
-18 0 -19 10 -19 138 0 76 3 142 7 146 4 4 16 6 28 4 19 -3 20 -11 23 -132z
m552 33 c0 -25 -12 -30 -26 -11 -15 19 -18 64 -7 76 9 8 32 -39 33 -65z
m-1040 -94 c0 -51 -4 -75 -12 -75 -19 0 -58 42 -58 62 0 29 28 76 47 81 10 3
19 5 21 6 1 0 2 -33 2 -74z"/>
<path d="M510 974 l0 -400 50 -49 50 -49 0 400 0 400 -50 49 -50 49 0 -400z"/>
<path d="M710 974 l0 -400 50 -49 50 -49 0 400 0 400 -50 49 -50 49 0 -400z"/>
<path d="M5850 914 l0 -400 50 -49 50 -49 0 400 0 400 -50 49 -50 49 0 -400z"/>
<path d="M6050 914 l0 -400 50 -49 50 -49 0 400 0 400 -50 49 -50 49 0 -400z"/>
<path d="M4433 1160 l48 -30 174 0 175 0 0 -60 0 -60 -159 0 c-183 0 -198 -5
-187 -68 6 -41 42 -83 105 -123 59 -38 112 -39 140 -3 25 32 27 90 4 116 -15
17 -14 18 40 18 l57 0 0 -92 c0 -78 -3 -95 -20 -113 l-21 -22 40 -26 c66 -44
86 -33 98 49 4 34 13 54 30 67 44 35 23 103 -29 95 -28 -4 -41 -58 -13 -58 12
0 15 6 10 20 -5 16 -2 20 14 20 16 0 21 -6 21 -29 0 -41 -44 -56 -74 -25 -27
26 -20 70 14 96 29 21 30 24 30 110 l0 88 110 0 110 0 0 -55 0 -55 -59 0 c-53
0 -62 -3 -81 -27 -31 -40 -21 -79 35 -130 42 -39 154 -103 179 -103 7 0 11 34
11 97 l0 98 53 3 52 3 0 -96 c0 -86 -2 -98 -22 -118 l-23 -22 43 -27 c50 -32
55 -33 76 -12 12 11 16 36 16 95 0 75 1 80 25 91 46 21 45 93 -1 104 -30 8
-56 -12 -52 -40 4 -26 48 -36 48 -10 0 13 -3 14 -14 5 -20 -17 -33 6 -14 25
33 33 74 -22 42 -57 -22 -24 -49 -24 -74 1 -28 28 -25 58 10 88 27 24 30 33
30 84 l0 58 57 0 57 0 -47 30 -48 30 -531 0 -532 0 47 -30z m907 -86 l0 -55
-51 3 -52 3 1 48 c0 26 1 49 1 52 1 3 24 5 51 5 l50 0 0 -56z m-190 -184 c0
-63 -2 -70 -19 -70 -24 0 -51 36 -51 66 0 26 36 74 56 74 11 0 14 -16 14 -70z
m-495 38 c-10 -34 -40 -73 -59 -76 -12 -3 -16 4 -16 32 0 37 27 66 63 66 14 0
17 -5 12 -22z"/>
<path d="M5539 1034 l-33 -34 32 -32 32 -33 32 32 31 32 -30 34 -31 35 -33
-34z"/>
<path d="M3800 906 c0 -2 8 -10 18 -17 15 -13 16 -12 3 4 -13 16 -21 21 -21
13z"/>
<path d="M5532 827 l-32 -33 35 -34 35 -34 31 31 32 31 -29 36 c-16 20 -31 36
-35 36 -3 0 -19 -15 -37 -33z"/>
<path d="M4188 595 c-147 -24 -291 -80 -414 -162 l-54 -36 31 -38 c17 -22 35
-39 40 -39 5 0 30 15 56 34 109 77 275 142 425 166 169 27 411 1 554 -60 l49
-21 -34 35 c-95 98 -423 159 -653 121z"/>
</g>
</svg>
