<?xml version="1.0" standalone="no"?>
<!DOCTYPE svg PUBLIC "-//W3C//DTD SVG 20010904//EN"
 "http://www.w3.org/TR/2001/REC-SVG-20010904/DTD/svg10.dtd">
<svg version="1.0" xmlns="http://www.w3.org/2000/svg"
 width="5000.000000pt" height="5000.000000pt" viewBox="0 0 5000.000000 5000.000000"
 preserveAspectRatio="xMidYMid meet">

<g transform="translate(0.000000,5000.000000) scale(0.100000,-0.100000)"
fill="#000000" stroke="none">
<path d="M25840 37214 c-1016 -61 -1949 -372 -2778 -926 -502 -336 -983 -794
-1347 -1283 -544 -731 -901 -1593 -1029 -2487 -44 -301 -51 -416 -51 -788 0
-372 7 -487 51 -788 86 -602 279 -1203 559 -1739 803 -1536 2272 -2605 3970
-2887 604 -101 1234 -99 1834 5 1849 320 3414 1570 4135 3302 199 477 320 945
388 1497 20 166 22 229 22 610 0 458 -10 589 -69 935 -336 1947 -1709 3575
-3578 4239 -426 152 -855 245 -1332 291 -148 14 -648 26 -775 19z m670 -754
c601 -52 1157 -206 1695 -470 1561 -767 2588 -2338 2654 -4062 24 -654 -70
-1250 -295 -1854 -238 -640 -597 -1196 -1094 -1694 -196 -197 -304 -291 -515
-450 -1042 -784 -2357 -1098 -3655 -875 -1821 314 -3319 1700 -3779 3497 -306
1193 -134 2463 479 3534 312 545 770 1061 1282 1444 596 447 1306 754 2018
874 398 67 838 87 1210 56z"/>
<path d="M23661 35378 c6 -13 53 -79 104 -148 116 -157 163 -233 237 -387 73
-153 195 -515 167 -498 -5 4 -9 13 -9 21 0 22 -87 238 -132 328 -106 210 -237
388 -368 498 -52 44 -103 84 -113 90 -17 9 -17 8 -3 -19 8 -15 55 -81 104
-146 49 -65 102 -140 116 -168 27 -48 27 -75 0 -65 -7 3 -17 -2 -22 -10 -7
-13 -11 -12 -27 6 -25 28 -43 25 -47 -7 -3 -25 -11 -18 -94 82 -51 61 -117
130 -148 155 -31 25 -56 50 -56 57 0 7 -7 13 -15 13 -18 0 -19 -5 -3 -33 7
-12 17 -35 24 -52 6 -16 47 -81 92 -143 97 -135 173 -270 177 -316 2 -18 13
-52 25 -76 79 -155 137 -388 147 -591 11 -232 -23 -465 -117 -809 -82 -297
-110 -450 -117 -635 -8 -231 17 -378 107 -628 75 -205 266 -402 504 -517 185
-90 379 -130 628 -130 176 0 311 16 634 76 199 37 274 46 371 47 66 1 124 0
126 -3 3 -3 9 -65 13 -137 5 -101 4 -136 -6 -148 -8 -10 -10 -29 -6 -59 6 -40
5 -44 -12 -39 -41 10 -42 -16 -6 -167 20 -88 38 -200 45 -285 11 -130 11 -147
-8 -242 -26 -124 -63 -208 -109 -246 -19 -16 -33 -32 -30 -34 17 -18 -202
-151 -258 -157 -12 -1 -28 -6 -36 -11 -8 -5 -78 -11 -155 -13 -164 -5 -279 9
-555 69 -330 72 -523 107 -625 113 -55 4 -104 11 -109 16 -6 6 -23 10 -38 10
-15 0 -28 5 -28 11 0 9 40 10 148 5 212 -10 295 -21 602 -81 347 -68 416 -77
570 -77 235 0 408 74 485 206 25 43 63 170 65 221 4 64 -2 67 -15 7 -37 -171
-121 -276 -268 -333 -75 -29 -92 -32 -202 -33 -120 -1 -172 7 -147 23 8 5 -16
11 -58 15 -39 3 -196 31 -348 60 -522 102 -767 115 -1112 60 -210 -33 -578
-142 -563 -167 4 -6 -2 -8 -16 -4 -13 3 -20 3 -17 0 4 -4 -51 -36 -121 -73
-206 -106 -431 -267 -572 -410 -74 -74 -122 -140 -103 -140 6 0 65 39 133 87
245 172 403 256 619 331 128 44 310 95 316 89 2 -2 -15 -9 -38 -16 -225 -66
-520 -220 -712 -370 -58 -45 -212 -219 -202 -228 6 -6 93 50 189 121 88 65
201 129 210 119 4 -3 7 -15 7 -25 0 -10 7 -18 17 -18 13 0 11 -6 -10 -28 -34
-35 -34 -42 -1 -42 34 0 28 -8 -80 -95 -52 -41 -118 -101 -147 -133 -30 -32
-62 -61 -72 -65 -22 -8 -22 -31 1 -24 57 17 100 41 210 114 145 96 292 174
336 178 17 2 67 19 111 38 117 50 195 73 336 102 107 21 154 25 305 25 252 0
386 -19 735 -106 363 -90 491 -113 679 -121 220 -9 401 19 626 98 107 37 179
76 259 139 148 118 260 268 335 451 116 279 120 606 15 1124 -37 180 -55 310
-55 390 0 119 -9 112 147 120 101 6 141 4 158 -5 15 -8 39 -10 66 -6 35 6 40
4 31 -7 -9 -11 -8 -18 6 -30 16 -14 26 -14 122 9 182 43 270 55 410 55 189 0
346 -40 420 -107 14 -12 42 -36 62 -53 35 -31 54 -59 100 -151 13 -25 26 -47
30 -50 3 -3 14 -43 24 -90 35 -173 7 -425 -87 -792 -41 -162 -79 -370 -85
-474 -4 -64 -12 -111 -20 -118 -7 -7 -14 -28 -17 -47 -2 -19 -5 25 -5 98 -2
168 17 316 83 638 63 305 80 441 72 585 -7 127 -35 220 -92 304 -69 102 -185
161 -339 171 -39 2 -62 2 -51 -1 214 -53 295 -101 352 -211 43 -82 61 -145 68
-245 7 -85 -5 -158 -25 -158 -5 0 -12 -21 -15 -47 -4 -27 -31 -169 -60 -318
-85 -428 -90 -469 -90 -725 1 -247 13 -357 64 -565 36 -144 95 -320 121 -356
10 -14 37 -62 59 -107 46 -92 110 -198 150 -251 15 -20 59 -79 98 -131 94
-125 199 -238 275 -295 101 -76 92 -52 -57 146 -143 191 -210 314 -299 547
-39 101 -100 311 -94 318 3 2 10 -15 17 -38 23 -77 101 -261 148 -348 116
-214 241 -376 371 -480 133 -106 132 -98 -13 95 -95 126 -150 217 -138 229 4
3 14 6 24 6 9 0 19 6 22 13 3 8 12 5 29 -10 31 -29 38 -29 38 2 0 14 4 25 8
25 5 0 33 -30 62 -67 60 -75 250 -266 258 -258 3 2 -3 20 -12 39 -9 19 -16 38
-16 43 0 4 -40 64 -89 133 -106 147 -222 360 -184 337 5 -4 -6 26 -25 66 -49
103 -108 286 -128 397 -12 68 -17 148 -17 280 0 211 19 347 78 571 132 499
155 627 155 855 0 267 -75 549 -193 724 -167 247 -480 427 -819 470 -214 27
-448 8 -883 -69 -248 -44 -362 -56 -433 -46 l-49 7 -8 134 c-5 100 -4 139 5
150 8 9 11 33 8 66 -4 41 -3 48 6 36 10 -14 14 -14 31 -2 19 14 19 17 -13 147
-46 192 -52 237 -52 376 0 90 6 149 19 206 24 97 57 178 71 170 6 -4 7 1 3 12
-3 10 -3 15 2 11 7 -7 47 34 45 47 -3 26 218 154 290 169 164 33 351 24 605
-29 488 -104 609 -126 725 -135 69 -5 126 -14 128 -20 2 -5 22 -10 45 -11 41
-1 41 -1 12 -10 -37 -12 -237 -3 -400 17 -66 8 -246 40 -400 71 l-280 57 -205
0 c-176 1 -213 -2 -260 -18 -180 -62 -252 -136 -299 -306 -22 -79 -29 -168
-11 -140 5 8 10 25 10 38 0 41 61 180 98 223 74 87 192 136 346 146 120 7 180
-1 172 -23 -4 -11 4 -14 32 -14 39 -1 177 -24 502 -84 302 -57 434 -69 655
-63 199 6 327 22 509 63 119 26 377 109 386 123 3 5 66 41 140 79 219 112 431
264 586 418 66 65 116 134 97 134 -5 0 -55 -35 -113 -76 -281 -203 -502 -310
-829 -400 -68 -19 -126 -32 -129 -30 -2 3 22 12 54 22 154 45 384 152 539 251
160 103 248 185 365 337 14 18 14 19 -6 8 -11 -6 -72 -47 -134 -92 -141 -101
-246 -164 -260 -155 -5 3 -10 15 -10 25 0 10 -5 20 -11 22 -6 2 -2 14 10 30
27 34 26 38 -4 38 -14 0 -25 3 -25 8 1 4 40 38 88 75 95 75 255 227 248 235
-11 11 -115 -44 -242 -128 -157 -104 -342 -198 -320 -162 4 6 -31 -6 -76 -27
-239 -111 -507 -158 -798 -140 -218 13 -325 32 -682 123 -329 85 -434 100
-673 100 -234 0 -334 -16 -539 -88 -146 -51 -250 -112 -349 -205 -250 -235
-369 -562 -354 -976 6 -158 23 -278 83 -571 37 -182 58 -444 38 -464 -11 -11
-259 -14 -336 -5 -39 5 -55 11 -52 19 3 7 -2 18 -10 25 -13 11 -41 7 -154 -18
-75 -17 -169 -35 -207 -41 -212 -30 -489 11 -573 86 -44 38 -51 44 -57 44 -23
0 -72 70 -125 175 -11 22 -24 47 -29 55 -14 23 -30 107 -37 195 -9 120 10 272
71 545 79 356 113 533 120 638 4 50 11 95 16 98 5 3 9 20 10 37 l1 32 9 -30
c11 -38 -6 -328 -26 -454 -9 -52 -38 -198 -65 -325 -61 -289 -75 -400 -67
-532 14 -224 96 -374 242 -440 80 -37 293 -75 245 -44 -8 5 -27 10 -43 10 -15
0 -64 15 -110 33 -112 44 -180 110 -227 222 -32 76 -34 86 -34 207 -1 120 6
158 23 130 4 -6 12 31 19 82 6 52 34 206 61 343 75 374 85 451 85 668 0 201
-11 308 -50 496 -39 186 -130 458 -149 442 -4 -5 -5 1 -1 12 4 11 4 16 0 12
-4 -4 -33 41 -64 100 -31 60 -67 124 -80 144 -182 270 -325 435 -457 527 -39
28 -47 28 -32 0z"/>
<path d="M26297 33261 c-4 -17 -3 -21 5 -13 5 5 8 16 6 23 -3 8 -7 3 -11 -10z"/>
<path d="M26917 32990 c-230 -58 -311 -344 -144 -508 61 -60 126 -86 213 -87
62 0 80 5 139 35 267 136 184 538 -116 564 -30 3 -71 1 -92 -4z"/>
<path d="M25004 32840 c-75 -30 -136 -87 -169 -161 -24 -55 -27 -71 -23 -139
6 -96 42 -167 113 -222 153 -116 379 -61 459 111 32 71 30 199 -6 267 -51 97
-142 155 -253 161 -53 2 -82 -2 -121 -17z"/>
<path d="M27670 31550 c8 -5 20 -10 25 -10 6 0 3 5 -5 10 -8 5 -19 10 -25 10
-5 0 -3 -5 5 -10z"/>
<path d="M25171 31084 c-140 -37 -221 -144 -221 -289 0 -83 23 -145 76 -204
60 -67 127 -95 224 -96 62 0 85 5 132 28 109 54 163 144 162 272 0 66 -5 89
-26 130 -69 131 -210 196 -347 159z"/>
<path d="M27050 31073 c-63 -23 -151 -113 -173 -177 -69 -201 73 -406 281
-406 90 0 148 25 214 90 63 63 88 124 88 215 0 83 -26 143 -90 207 -43 43 -69
60 -110 72 -67 20 -151 19 -210 -1z"/>
<path d="M9640 27035 c-239 -53 -422 -177 -509 -343 -22 -43 -52 -118 -67
-167 -26 -84 -28 -103 -28 -270 -1 -138 3 -200 17 -265 65 -305 234 -620 507
-945 98 -117 101 -122 47 -91 -62 37 -198 85 -285 102 -373 72 -652 -173 -628
-551 11 -173 67 -327 201 -550 52 -86 95 -158 95 -160 0 -2 -24 -11 -52 -21
-80 -26 -319 -126 -440 -182 -351 -165 -600 -356 -681 -522 -20 -41 -39 -97
-43 -125 l-6 -50 264 -231 c144 -127 279 -245 299 -263 58 -50 99 -33 45 18
-32 30 -56 81 -56 118 0 90 83 240 190 343 179 172 448 281 825 335 l100 14
165 -162 c91 -89 166 -165 168 -168 1 -3 -46 -25 -105 -48 -222 -88 -495 -245
-673 -388 -374 -299 -621 -687 -709 -1110 -116 -559 54 -1180 461 -1685 389
-482 1023 -953 1571 -1168 450 -177 1025 -200 1480 -59 335 103 610 267 1142
680 666 518 955 700 1283 809 169 56 249 71 417 77 175 6 270 -8 422 -62 121
-43 224 -102 327 -187 107 -89 206 -162 212 -156 8 9 -83 111 -168 188 -207
189 -357 307 -563 445 -256 172 -410 234 -631 256 -271 26 -581 -36 -869 -176
-224 -108 -409 -233 -785 -530 -540 -426 -745 -567 -1029 -709 -596 -299
-1272 -346 -1801 -125 -439 183 -729 552 -834 1062 -70 333 -59 837 24 1122
11 38 20 72 20 74 0 2 37 0 83 -4 169 -18 278 4 386 76 75 50 123 105 164 189
30 60 32 72 32 165 0 91 -3 106 -32 167 -60 128 -161 198 -296 206 -97 6 -152
-13 -218 -75 -91 -85 -112 -199 -55 -298 46 -78 143 -105 213 -60 60 40 48
108 -23 121 -44 8 -50 23 -30 66 49 102 178 84 239 -32 24 -46 28 -63 23 -102
-19 -168 -213 -280 -385 -223 -72 24 -152 99 -193 183 -31 62 -33 74 -33 167
0 92 3 106 32 167 117 248 386 317 681 177 l83 -40 63 40 c158 99 344 181 661
291 82 28 198 73 257 100 l108 48 0 -406 c0 -224 4 -412 8 -417 9 -13 600
-495 607 -495 3 0 5 555 5 1233 0 1223 3 1353 34 1458 40 133 131 251 235 304
53 26 161 54 214 55 l27 0 0 -1629 0 -1629 308 -250 307 -250 5 420 5 421 35
12 c81 28 164 79 230 141 195 184 209 449 33 615 -78 74 -128 94 -238 94 -96
0 -137 -14 -203 -70 -80 -67 -108 -214 -57 -302 31 -52 69 -73 132 -73 60 0
95 17 107 52 9 25 5 31 -37 71 -26 24 -47 48 -47 54 0 7 12 25 26 42 77 92
230 7 242 -135 7 -84 -14 -141 -72 -199 -67 -66 -129 -88 -234 -84 -273 13
-429 313 -299 578 45 93 142 188 239 235 41 20 82 36 90 36 9 0 23 11 32 25
14 22 16 91 16 657 0 519 3 650 15 728 35 216 153 361 342 420 30 9 55 19 56
23 1 3 -124 143 -277 311 l-279 306 -1146 0 -1145 0 40 -42 c23 -24 150 -163
283 -310 l242 -268 60 0 59 0 0 -358 0 -358 -52 -84 c-59 -97 -202 -246 -290
-303 -96 -63 -197 -113 -350 -176 l-147 -60 -89 117 c-130 172 -175 241 -160
247 372 129 654 348 735 573 45 122 40 232 -17 358 l-19 44 72 0 72 1 -95 86
c-172 157 -430 416 -512 513 -243 288 -306 446 -295 735 6 151 23 229 73 350
99 232 289 395 539 461 108 29 363 27 468 -4 108 -31 196 -77 310 -164 211
-162 354 -303 783 -773 352 -386 526 -541 723 -643 136 -71 236 -102 352 -109
131 -8 194 12 265 82 69 67 93 133 105 290 17 216 65 315 157 318 l39 2 -51
59 c-76 89 -350 390 -436 480 l-76 78 -42 -7 c-100 -17 -129 -75 -158 -315
-12 -99 -42 -178 -84 -220 -98 -98 -308 -93 -522 15 -229 114 -412 268 -888
746 -227 228 -417 409 -481 460 -193 152 -380 252 -574 306 -114 32 -333 41
-435 18z m120 -2504 c0 -45 -27 -171 -45 -215 -45 -106 -135 -215 -244 -295
-58 -43 -140 -91 -156 -91 -11 0 -4 158 10 223 39 187 173 337 350 393 68 21
85 18 85 -15z"/>
<path d="M18915 26503 c-188 -23 -356 -63 -665 -158 -267 -83 -398 -113 -520
-121 -173 -12 -274 15 -535 139 -188 89 -252 104 -301 72 -57 -37 -69 -141
-22 -192 94 -102 586 -430 855 -570 217 -113 347 -156 525 -173 219 -21 411
15 854 161 332 109 454 141 599 160 206 25 349 -6 610 -136 237 -117 450 -255
885 -574 113 -82 285 -207 382 -278 97 -70 177 -131 177 -135 1 -5 -1679 -9
-3732 -10 l-3734 -3 363 -237 363 -238 790 0 791 0 0 -410 0 -410 -102 68
c-166 110 -299 189 -392 232 -301 142 -541 59 -686 -235 -51 -105 -70 -183
-70 -292 0 -200 80 -363 266 -544 193 -186 500 -406 859 -614 152 -88 464
-242 518 -256 130 -32 273 37 331 161 21 45 21 49 24 1173 l2 1127 269 0 268
0 6 -452 c10 -647 8 -2027 -2 -2135 -13 -128 -21 -142 -107 -173 -82 -31 -141
-70 -205 -137 -130 -134 -179 -290 -145 -451 22 -104 57 -174 121 -241 117
-123 277 -167 453 -126 35 8 67 13 71 10 15 -9 115 70 153 120 76 101 100 247
57 360 -25 67 -100 152 -162 183 -137 68 -289 39 -370 -71 -103 -138 -26 -327
133 -327 94 0 141 130 50 142 -17 2 -26 10 -28 25 -7 50 96 73 135 31 31 -34
53 -83 53 -117 0 -91 -95 -182 -204 -197 -94 -13 -210 57 -264 160 -24 45 -27
62 -27 146 0 84 3 101 27 146 126 240 450 283 647 87 160 -161 186 -426 59
-617 -45 -69 -135 -137 -280 -211 l-128 -66 0 -494 0 -493 63 -49 c34 -27 193
-152 352 -278 l290 -228 3 2727 2 2726 320 0 320 0 0 -752 c0 -414 5 -802 10
-863 24 -273 97 -401 334 -591 400 -321 731 -476 1021 -477 222 0 393 86 439
221 14 40 16 187 16 1254 l0 1208 258 -2 257 -3 3 -1280 c2 -1394 2 -1392 -53
-1510 -58 -122 -159 -191 -297 -204 l-70 -6 367 -242 c401 -266 378 -255 495
-227 112 26 183 81 234 182 52 103 59 143 65 391 l6 233 90 32 c121 44 161 66
225 123 188 169 227 440 92 649 -47 72 -95 114 -182 157 -60 30 -72 32 -165
32 -128 -1 -191 -24 -275 -102 -84 -78 -115 -144 -115 -248 0 -133 60 -231
174 -283 44 -20 64 -24 115 -20 71 6 109 23 154 69 54 55 64 138 26 212 -20
38 -73 62 -110 50 -42 -14 -50 -34 -34 -83 17 -50 7 -71 -39 -84 -79 -23 -148
84 -121 185 15 56 81 123 135 138 135 37 257 -19 327 -152 19 -35 23 -58 23
-137 0 -81 -4 -103 -25 -145 -33 -68 -117 -150 -187 -183 -52 -24 -69 -27
-168 -27 -100 0 -115 2 -167 28 -164 81 -268 246 -268 426 0 235 143 412 423
522 28 11 55 26 59 32 4 7 8 342 8 745 l0 732 648 0 649 0 17 -87 c36 -183
132 -331 365 -563 175 -174 307 -286 458 -387 l112 -75 -15 -36 c-42 -103
-156 -231 -284 -318 -86 -59 -223 -134 -293 -159 l-48 -18 -82 56 c-45 31
-145 109 -222 173 -184 152 -263 209 -360 254 -99 47 -173 64 -256 58 -80 -5
-134 -31 -165 -78 -101 -152 -13 -272 671 -914 547 -514 792 -761 1067 -1078
667 -767 1033 -1464 1143 -2178 22 -144 31 -459 16 -601 -75 -718 -513 -1359
-1189 -1739 -326 -183 -709 -281 -982 -251 -278 30 -445 177 -512 449 -31 124
-31 392 1 577 56 325 179 572 391 786 247 248 580 400 968 441 225 23 514 -42
706 -160 l38 -24 -32 47 c-55 80 -173 217 -249 288 -264 248 -581 393 -935
428 -352 35 -735 -68 -1061 -286 l-93 -63 -99 36 c-83 30 -112 35 -188 36 -78
1 -98 -3 -147 -26 -213 -100 -287 -373 -142 -528 105 -112 253 -129 354 -42
74 63 96 141 63 223 -12 32 -26 46 -57 60 -76 34 -131 18 -138 -40 -2 -17 5
-28 27 -41 40 -22 43 -53 10 -86 -23 -23 -32 -26 -73 -21 -89 10 -140 104
-112 208 16 60 89 131 153 149 67 18 156 8 211 -24 52 -30 87 -70 124 -140 23
-44 27 -63 27 -136 0 -76 -3 -92 -33 -152 -80 -163 -280 -252 -467 -208 -25 6
-44 5 -51 -1 -7 -5 -22 -62 -35 -127 -19 -93 -24 -150 -24 -277 0 -143 3 -171
28 -268 82 -313 259 -603 524 -858 503 -482 1211 -711 1853 -600 869 152 1551
790 1733 1623 42 191 51 282 51 508 0 223 -8 311 -49 515 -117 583 -441 1197
-1000 1895 -240 300 -436 520 -950 1070 -376 402 -647 701 -641 707 2 2 30 -7
62 -20 112 -47 231 -85 350 -112 100 -23 142 -28 264 -27 157 0 232 12 350 59
285 114 502 343 580 613 31 107 39 344 15 461 -35 175 -104 331 -213 479 -106
143 -270 287 -514 450 -70 47 -127 88 -128 93 0 4 342 7 759 7 l760 0 3 -1252
c2 -689 0 -1291 -4 -1337 -14 -150 -57 -251 -137 -323 -53 -48 -152 -88 -216
-88 -18 0 -36 -4 -39 -9 -3 -4 157 -115 355 -246 l361 -238 75 11 c41 7 95 21
118 31 64 28 127 92 164 163 57 114 61 155 61 654 l0 450 58 18 c173 54 323
174 388 309 84 178 46 397 -95 538 -67 66 -144 106 -235 121 -169 28 -324 -50
-398 -200 -29 -59 -33 -76 -33 -147 0 -67 5 -89 28 -137 48 -98 131 -151 237
-151 102 -1 160 36 199 124 17 37 18 52 11 81 -15 52 -55 88 -99 88 -56 0 -65
-10 -57 -63 6 -42 5 -47 -18 -62 -42 -28 -104 6 -133 73 -28 66 24 174 101
212 83 40 206 21 275 -43 64 -60 108 -181 96 -267 -10 -71 -56 -158 -111 -212
-151 -145 -393 -134 -562 25 -263 250 -146 684 222 826 43 17 89 37 102 46
l24 15 0 495 0 495 375 0 375 0 0 -1244 c0 -830 -4 -1270 -11 -1321 -33 -242
-135 -366 -325 -398 l-71 -12 355 -259 354 -259 72 5 c57 4 85 12 135 38 72
39 110 80 152 168 68 140 64 33 64 1737 l0 1540 869 3 869 2 -7 -94 c-33 -471
-350 -816 -797 -868 -194 -23 -344 14 -608 149 -79 41 -146 71 -149 68 -15
-15 512 -521 802 -770 494 -423 817 -650 1181 -830 306 -151 461 -195 693
-195 144 0 243 15 354 55 124 45 112 51 104 -48 -13 -162 -63 -295 -138 -368
-57 -55 -106 -78 -206 -98 l-83 -16 377 -264 378 -263 65 5 c87 7 130 21 187
60 91 61 158 181 184 331 6 34 10 223 10 437 l0 377 88 43 c224 111 357 339
323 553 -24 150 -135 299 -257 346 -157 60 -327 25 -443 -92 -66 -66 -91 -127
-91 -221 0 -99 29 -166 101 -231 61 -55 102 -69 184 -64 77 5 128 35 173 104
37 55 40 91 13 151 -22 47 -53 71 -104 80 -46 7 -80 -16 -106 -73 -12 -24 -25
-44 -29 -44 -5 0 -19 11 -31 24 -64 69 56 217 175 216 88 -1 172 -56 219 -142
58 -105 33 -240 -64 -350 -48 -54 -136 -103 -211 -116 -114 -21 -236 24 -335
123 -73 73 -118 157 -135 254 -43 238 144 477 460 587 l65 23 3 580 2 581 599
2 599 3 -362 238 -363 237 -5487 0 -5488 0 -391 384 c-434 424 -589 570 -782
736 -505 433 -878 627 -1314 685 -95 13 -387 18 -466 8z m1490 -3283 c0 -978
0 -985 -21 -1030 -29 -63 -77 -108 -159 -147 -82 -38 -206 -68 -216 -51 -12
19 -30 152 -32 243 -1 50 -1 514 1 1033 l2 942 213 -2 212 -3 0 -985z m11192
383 c-5 -580 -6 -612 -26 -693 -121 -474 -608 -818 -1130 -798 -291 12 -519
121 -795 379 -83 78 -359 380 -353 386 2 1 46 -16 98 -38 120 -52 270 -102
379 -125 117 -25 349 -25 440 0 288 79 481 326 536 688 36 237 -3 582 -91 791
-7 16 19 17 470 17 l477 0 -5 -607z m-7014 314 c65 -151 88 -247 94 -397 5
-120 -6 -262 -21 -278 -13 -12 -126 149 -179 254 -50 98 -70 176 -70 265 -1
63 4 86 27 132 26 53 91 121 106 112 4 -3 24 -42 43 -88z m-7983 -1217 l0
-581 -37 6 c-148 25 -310 132 -400 263 -64 95 -87 181 -80 306 17 315 234 575
490 585 l27 1 0 -580z"/>
<path d="M3930 22986 l0 -3141 367 -366 c203 -201 392 -385 421 -408 l52 -43
0 3139 0 3138 -372 370 c-205 204 -394 389 -420 411 l-48 41 0 -3141z"/>
<path d="M5510 22982 l0 -3139 411 -408 c225 -224 411 -406 413 -404 2 2 7
1414 11 3138 l7 3133 -333 335 c-184 184 -373 368 -421 410 l-88 74 0 -3139z"/>
<path d="M45630 22532 l0 -3140 373 -370 c204 -203 393 -388 420 -412 l47 -43
0 3141 0 3140 -377 375 c-208 206 -397 391 -420 412 l-43 37 0 -3140z"/>
<path d="M47210 22529 l0 -3142 328 -329 c180 -181 366 -363 415 -404 l87 -75
0 1119 c0 615 3 2024 7 3131 l6 2012 -334 335 c-184 185 -373 372 -421 416
l-88 80 0 -3143z"/>
<path d="M34201 24666 c2 -2 174 -114 381 -250 l377 -246 1371 0 1370 0 0
-455 0 -455 -1212 -2 -1213 -3 -67 -32 c-125 -59 -175 -114 -219 -243 -30 -89
-31 -241 0 -355 47 -177 175 -385 314 -509 378 -340 837 -599 1130 -638 162
-22 298 33 432 173 232 243 323 642 198 871 -28 52 -123 156 -183 201 l-35 27
428 0 428 0 -4 -652 c-3 -570 -6 -661 -20 -716 -35 -129 -105 -225 -198 -270
-25 -12 -83 -28 -127 -34 l-82 -12 378 -249 377 -249 65 5 c127 11 232 70 286
162 70 120 94 268 94 587 l0 227 26 20 c15 12 34 21 44 21 10 0 50 17 91 37
194 97 322 327 292 523 -28 181 -162 316 -346 350 -103 20 -234 -23 -294 -95
-114 -134 -100 -345 27 -412 81 -43 193 -24 225 37 24 47 13 77 -38 100 -23
11 -54 20 -68 20 -49 0 -53 63 -9 114 79 90 225 63 281 -51 31 -64 38 -172 15
-241 -24 -71 -82 -133 -157 -166 -117 -53 -284 -34 -394 45 -56 41 -120 133
-141 206 -33 112 -15 262 43 378 39 76 144 175 228 214 147 68 159 76 166 101
4 14 7 339 8 723 l1 697 850 0 850 0 0 -425 0 -425 -404 0 c-450 0 -471 -3
-576 -70 -226 -145 -305 -511 -170 -787 100 -207 485 -543 927 -809 314 -189
650 -337 906 -398 l27 -6 0 800 0 800 391 0 390 0 -3 -697 c-4 -685 -4 -699
-26 -777 -28 -101 -58 -151 -126 -213 -58 -53 -116 -77 -219 -91 l-57 -7 376
-249 377 -248 64 6 c129 13 220 65 283 158 86 129 94 196 92 800 -1 277 2 508
7 521 7 19 23 27 76 40 222 55 385 266 385 498 0 184 -94 335 -258 412 -61 29
-75 32 -167 32 -86 0 -107 -3 -150 -25 -67 -33 -135 -102 -171 -175 -25 -51
-29 -71 -29 -140 0 -67 5 -88 27 -130 81 -154 252 -201 365 -102 42 37 63 82
63 134 -1 41 -11 59 -50 86 -46 32 -66 23 -97 -40 -34 -70 -60 -79 -104 -37
-44 42 -56 93 -35 148 21 55 83 113 131 122 121 22 238 -44 301 -172 57 -115
34 -219 -73 -334 -72 -78 -142 -112 -244 -118 -130 -8 -231 33 -325 130 -95
99 -129 184 -128 328 1 185 57 263 314 433 l155 102 3 463 2 462 453 0 452 0
-230 151 c-126 83 -297 195 -380 250 l-150 99 -4184 0 c-2301 0 -4182 -2
-4180 -4z m7457 -918 l-3 -423 -385 0 -385 0 -3 423 -2 422 390 0 390 0 -2
-422z m-1490 -1456 c2 -466 0 -562 -11 -562 -37 0 -175 43 -227 71 -80 42
-173 142 -210 222 -144 319 61 774 372 826 29 5 58 8 63 6 6 -1 11 -199 13
-563z m-3828 439 c0 -54 -34 -202 -64 -275 -83 -206 -237 -374 -414 -451 -52
-22 -52 -22 -83 75 -67 215 -40 405 76 529 96 102 194 140 368 140 108 1 117
0 117 -18z"/>
<path d="M43212 23447 l-282 -282 268 -268 267 -267 260 260 259 259 -34 43
c-42 52 -416 496 -439 520 -15 17 -34 0 -299 -265z"/>
<path d="M43212 21827 l-282 -282 268 -268 267 -267 259 259 c238 238 258 261
245 278 -22 29 -440 526 -458 545 -15 17 -34 0 -299 -265z"/>
<path d="M33550 20109 c-1422 -84 -2749 -502 -3915 -1232 -215 -134 -634 -430
-635 -448 0 -7 525 -548 572 -588 l37 -32 143 107 c534 400 1176 756 1822
1011 643 254 1310 423 2016 512 384 49 521 56 1060 56 513 0 578 -3 920 -41
864 -97 1695 -331 2485 -699 l100 -47 -30 34 c-16 18 -147 151 -290 296 -291
295 -258 271 -564 407 -868 384 -1813 608 -2805 665 -203 11 -715 11 -916 -1z"/>
</g>
</svg>
