<?xml version="1.0" standalone="no"?>
<!DOCTYPE svg PUBLIC "-//W3C//DTD SVG 20010904//EN"
 "http://www.w3.org/TR/2001/REC-SVG-20010904/DTD/svg10.dtd">
<svg version="1.0" xmlns="http://www.w3.org/2000/svg"
 width="314.000000pt" height="140.000000pt" viewBox="0 0 314.000000 140.000000"
 preserveAspectRatio="xMidYMid meet">

<g transform="translate(0.000000,140.000000) scale(0.100000,-0.100000)"
fill="#000000" stroke="none">
<path d="M1583 1360 c-111 -23 -196 -88 -245 -188 -29 -59 -33 -76 -33 -147 0
-71 4 -89 33 -147 38 -77 92 -130 171 -167 80 -37 192 -37 272 0 111 52 177
138 200 259 41 225 -174 436 -398 390z m195 -71 c70 -35 105 -71 141 -149 70
-152 -13 -343 -171 -396 -70 -23 -178 -16 -241 16 -192 97 -212 383 -37 505
56 39 106 54 181 55 54 0 77 -6 127 -31z"/>
<path d="M1505 1230 c3 -5 3 -10 -2 -10 -4 0 -9 -41 -10 -92 -3 -116 5 -128
87 -128 l57 0 1 -40 c1 -30 -3 -42 -17 -50 -23 -12 -54 -13 -47 -2 2 4 -23 8
-56 7 -40 0 -63 -4 -66 -13 -2 -6 -8 -10 -13 -7 -5 4 -7 0 -4 -7 4 -9 32 -13
106 -13 118 0 129 7 129 90 l0 52 37 1 c20 1 42 -3 50 -9 14 -12 18 -59 6 -59
-14 0 -9 -103 5 -108 6 -2 10 -7 8 -11 -3 -4 4 -7 14 -7 15 0 16 4 8 19 -6 11
-7 48 -3 92 7 67 5 75 -15 95 -18 18 -31 21 -73 18 -49 -3 -52 -2 -54 22 -5
57 4 69 50 68 23 0 45 -4 48 -10 7 -10 86 5 101 20 19 19 -1 31 -32 21 -20 -7
-45 -7 -83 1 -59 12 -100 3 -111 -25 -3 -9 -6 -39 -6 -66 l0 -49 -38 0 c-21 0
-43 5 -50 12 -13 13 -17 58 -4 58 14 0 11 82 -4 111 -8 16 -17 29 -20 29 -3 0
-2 -4 1 -10z"/>
<path d="M1685 1089 c-10 -15 1 -23 20 -15 9 3 13 10 10 16 -8 13 -22 13 -30
-1z"/>
<path d="M1565 1081 c-3 -5 -1 -12 5 -16 12 -7 30 2 30 16 0 12 -27 12 -35 0z"/>
<path d="M1572 968 c5 -15 28 -18 29 -3 0 6 -7 12 -17 13 -10 3 -15 -1 -12
-10z"/>
<path d="M1695 971 c-7 -12 12 -24 25 -16 11 7 4 25 -10 25 -5 0 -11 -4 -15
-9z"/>
<path d="M586 714 c-20 -19 -20 -37 -1 -74 16 -32 31 -41 21 -14 -4 9 1 27 9
40 25 39 61 31 121 -26 29 -27 62 -50 72 -50 23 0 36 38 20 57 -14 17 -28 16
-28 -2 0 -28 -45 -16 -81 21 -58 61 -104 77 -133 48z"/>
<path d="M1165 689 c-16 -5 -48 -7 -70 -4 -38 5 -39 4 -20 -11 40 -32 81 -44
116 -34 54 16 84 12 125 -16 l39 -26 -25 27 c-56 61 -110 82 -165 64z"/>
<path d="M250 478 l0 -195 25 -23 25 -23 0 195 0 195 -25 23 -25 23 0 -195z"/>
<path d="M350 478 l0 -195 25 -23 25 -23 0 195 0 195 -25 23 -25 23 0 -195z"/>
<path d="M2870 448 l0 -195 25 -23 25 -23 0 195 0 195 -25 23 -25 23 0 -195z"/>
<path d="M2970 448 l0 -195 25 -23 25 -23 0 195 0 195 -25 23 -25 23 0 -195z"/>
<path d="M554 586 c-3 -8 -1 -23 5 -35 14 -26 14 -31 -3 -31 -7 0 -25 -10 -40
-21 -26 -20 -26 -22 -9 -41 17 -19 17 -19 25 1 4 11 20 23 35 26 80 18 105 48
72 89 -23 29 -76 36 -85 12z m60 -31 c-6 -16 -24 -21 -24 -7 0 11 11 22 21 22
5 0 6 -7 3 -15z"/>
<path d="M656 575 c4 -8 10 -15 16 -15 5 0 8 -14 6 -32 -3 -28 -11 -36 -63
-62 -76 -39 -104 -86 -86 -145 6 -21 21 -46 32 -57 22 -19 22 -19 11 2 -15 28
-13 154 2 155 6 1 15 1 20 0 5 -1 26 5 47 13 l39 16 0 -30 c0 -19 7 -33 20
-40 18 -10 19 -6 22 82 2 62 7 93 16 96 9 3 12 -22 12 -100 0 -68 4 -108 12
-116 18 -18 28 -14 28 11 0 13 5 28 11 34 14 14 4 47 -11 38 -5 -3 -10 -12
-10 -18 0 -7 4 -6 10 3 8 13 10 13 10 -1 0 -21 -9 -29 -26 -22 -18 7 -18 40 0
50 12 7 22 89 17 141 -1 8 -22 12 -71 12 -58 0 -68 -3 -64 -15z"/>
<path d="M934 565 c11 -9 41 -15 68 -15 44 0 48 -2 48 -24 0 -23 -2 -24 -30
-13 -58 22 -68 -38 -12 -78 20 -14 24 -15 14 -3 -17 21 -7 58 15 58 12 0 14
-9 11 -40 -3 -38 5 -50 33 -50 5 0 9 34 9 75 0 68 2 75 20 75 18 0 20 -7 20
-82 0 -61 -4 -86 -16 -99 -20 -22 -11 -52 13 -47 24 4 28 35 6 42 -15 4 -15 5
2 3 25 -3 33 -44 11 -53 -24 -9 -21 -66 4 -82 20 -12 20 -10 20 153 l0 165 25
0 c24 0 25 -3 25 -59 0 -52 3 -62 26 -80 15 -12 40 -21 55 -21 l29 0 0 80 c0
67 3 80 16 80 14 0 15 -14 12 -100 -3 -88 -1 -101 14 -106 23 -7 38 3 38 26 0
10 6 21 13 24 8 4 7 5 -3 5 -8 -1 -21 -1 -27 0 -18 1 -16 48 2 55 10 4 15 20
15 51 l0 45 40 0 c29 0 42 -5 50 -20 6 -11 18 -24 28 -29 15 -8 18 -5 17 17 0
25 3 27 48 30 l49 3 -4 -101 c-3 -90 -1 -101 15 -106 24 -8 28 -3 37 46 6 35
5 40 -11 40 -24 0 -27 48 -4 56 9 4 15 19 15 35 0 24 4 29 25 29 25 0 25 -1
25 -83 0 -46 -5 -88 -10 -93 -14 -14 14 -38 35 -30 12 4 15 25 15 106 l0 100
55 0 c60 0 70 -13 35 -45 -12 -11 -29 -16 -46 -12 -23 4 -24 3 -11 -10 20 -20
84 -28 102 -13 8 7 15 29 15 50 0 34 2 37 28 36 25 -1 27 -4 30 -48 4 -55 -21
-88 -65 -88 -22 0 -25 -2 -13 -10 8 -5 30 -10 49 -10 30 0 33 -2 27 -25 -9
-34 28 -55 44 -26 5 11 10 28 10 38 0 11 5 24 11 30 6 6 9 19 6 29 -4 16 -5
15 -6 -3 -1 -16 -7 -23 -21 -23 -31 0 -37 30 -12 51 15 12 22 28 22 53 0 33 3
36 28 36 21 0 24 2 12 10 -9 6 -235 10 -590 10 -508 -1 -573 -2 -556 -15z
m354 -82 c-2 -42 -8 -68 -15 -71 -10 -3 -13 15 -13 67 0 57 3 71 15 71 13 0
15 -12 13 -67z m-157 -137 c5 3 9 0 9 -5 0 -6 -7 -11 -15 -11 -8 0 -15 8 -14
18 0 10 3 12 6 4 2 -6 9 -10 14 -6z"/>
<path d="M2180 565 c16 -9 55 -14 108 -15 l82 0 0 -30 0 -30 -80 0 c-63 0 -82
-3 -86 -15 -9 -22 22 -63 61 -82 43 -21 69 -5 63 39 -4 24 -1 28 20 28 24 0
24 -2 20 -60 -4 -51 -2 -61 14 -66 24 -7 38 3 38 28 0 12 7 29 16 39 18 20 11
40 -14 38 -15 -1 -15 -2 1 -6 22 -6 17 -27 -6 -31 -24 -5 -32 25 -13 47 9 10
16 35 16 59 l0 42 55 0 c52 0 55 -1 55 -25 0 -20 -5 -25 -24 -25 -23 0 -56
-23 -56 -38 0 -13 31 -52 41 -52 6 0 7 4 4 10 -7 12 12 50 25 50 15 0 12 -70
-2 -70 -13 -1 30 -29 45 -30 4 0 7 23 7 50 0 47 1 50 26 50 26 0 26 -1 22 -65
-3 -56 -1 -66 14 -71 28 -8 38 4 38 45 0 20 5 42 10 47 7 7 4 10 -12 10 -28
-1 -39 40 -14 50 10 4 16 18 16 35 0 23 4 29 23 29 21 1 22 1 3 15 -16 12 -66
15 -280 15 -231 -1 -258 -2 -236 -15z m440 -40 c0 -20 -5 -25 -25 -25 -20 0
-25 5 -25 25 0 20 5 25 25 25 20 0 25 -5 25 -25z m-340 -84 c-15 -29 -30 -35
-30 -13 0 22 8 32 27 32 10 0 11 -5 3 -19z"/>
<path d="M1555 521 c15 -48 -28 -80 -74 -54 -57 33 -43 3 37 -81 92 -96 120
-158 102 -226 -16 -60 -96 -119 -141 -105 -27 9 -35 51 -16 90 17 35 72 62
105 51 11 -4 9 1 -7 14 -41 35 -134 19 -123 -22 3 -14 -1 -21 -17 -25 -64 -16
31 -133 108 -133 40 0 90 28 111 62 41 68 19 153 -66 248 -79 88 -78 87 -43
82 57 -8 88 47 53 96 -18 27 -38 29 -29 3z"/>
<path d="M2717 502 c-16 -17 -16 -20 -2 -32 13 -11 19 -11 33 3 15 15 15 19 1
32 -14 14 -17 14 -32 -3z"/>
<path d="M1677 473 c-10 -10 -8 -33 3 -33 5 0 7 7 4 15 -8 21 13 19 25 -2 6
-10 11 -13 11 -7 0 11 -20 34 -30 34 -4 0 -10 -3 -13 -7z"/>
<path d="M2654 469 c-3 -6 -1 -16 5 -22 9 -9 10 -7 5 7 -6 16 -4 18 10 13 10
-4 15 -3 11 3 -8 13 -22 13 -31 -1z"/>
<path d="M2029 468 c-6 -21 -5 -38 1 -38 5 0 8 9 7 20 -1 17 -5 26 -8 18z"/>
<path d="M1397 443 c-13 -13 -7 -33 11 -33 14 0 15 2 2 10 -8 5 -11 13 -6 17
4 4 14 -1 22 -11 8 -11 14 -15 14 -10 0 11 -20 34 -30 34 -4 0 -10 -3 -13 -7z"/>
<path d="M2717 402 c-16 -17 -16 -20 -2 -32 13 -11 19 -11 31 1 12 12 12 18 1
33 -12 16 -14 16 -30 -2z"/>
<path d="M570 400 c0 -5 8 -6 17 -3 13 5 15 3 9 -13 -5 -14 -4 -16 5 -7 6 6 8
16 5 22 -9 14 -36 15 -36 1z"/>
<path d="M851 309 c-13 -5 -41 -23 -61 -39 -53 -42 -107 -63 -144 -56 -29 5
-30 5 -12 -9 11 -8 41 -15 67 -15 40 0 58 7 121 50 46 32 84 50 103 50 l30 1
-25 14 c-29 17 -46 17 -79 4z"/>
<path d="M2105 293 c-68 -6 -143 -27 -195 -54 -87 -45 -87 -45 -67 -67 18 -20
19 -19 75 14 131 79 310 94 447 38 18 -7 19 -6 6 9 -26 32 -183 67 -266 60z"/>
</g>
</svg>
